<?xml version="1.0" standalone="no"?>
<!DOCTYPE svg PUBLIC "-//W3C//DTD SVG 20010904//EN"
 "http://www.w3.org/TR/2001/REC-SVG-20010904/DTD/svg10.dtd">
<svg version="1.0" xmlns="http://www.w3.org/2000/svg"
 width="1121.000000pt" height="899.000000pt" viewBox="0 0 1121.000000 899.000000"
 preserveAspectRatio="xMidYMid meet">

<g transform="translate(0.000000,899.000000) scale(0.100000,-0.100000)"
fill="#000000" stroke="none">
<path d="M0 4495 l0 -4495 5605 0 5605 0 0 4495 0 4495 -5605 0 -5605 0 0
-4495z m7215 583 c-4 -387 -8 -704 -10 -706 -1 -1 -30 5 -63 13 -55 14 -74 15
-179 1 -65 -8 -127 -16 -138 -18 -20 -3 -20 3 -20 237 0 132 4 257 9 277 7 34
6 38 -16 49 -20 9 -33 7 -69 -10 -67 -31 -198 -113 -395 -247 -99 -67 -242
-161 -319 -210 l-140 -89 -95 0 -95 0 -110 69 c-60 38 -184 119 -273 180 -90
61 -172 116 -181 121 -22 13 -145 91 -192 122 -38 25 -74 30 -85 12 -4 -6 -7
-128 -8 -270 l-1 -259 -203 -3 -202 -2 0 678 c0 372 4 677 8 677 5 0 97 -57
205 -127 454 -295 613 -398 807 -523 113 -73 232 -150 264 -172 32 -21 64 -37
71 -34 11 4 612 401 1223 808 106 70 198 128 204 128 8 0 9 -199 3 -702z
m-2986 624 c3 -5 4 -313 1 -684 -5 -666 -5 -673 -25 -670 -72 13 -294 23 -321
14 l-32 -9 -7 591 c-3 325 -5 629 -3 676 3 80 4 85 28 92 38 11 351 3 359 -10z
m213 -1545 c4 -7 8 -27 8 -44 0 -86 -115 -101 -136 -18 -8 33 16 78 46 85 28
7 71 -5 82 -23z m-315 6 c3 -8 -6 -10 -29 -7 -42 7 -61 -12 -56 -58 3 -32 4
-33 46 -32 42 1 55 -9 26 -20 -30 -11 -58 -6 -81 16 -27 25 -30 64 -7 96 13
19 24 22 57 20 22 -2 42 -8 44 -15z m547 -44 c1 -50 3 -54 26 -57 47 -7 45
-22 -3 -22 l-47 0 0 71 c0 49 4 69 12 67 6 -2 11 -27 12 -59z m266 1 l0 -60
30 0 c17 0 30 -4 30 -10 0 -5 -18 -10 -40 -10 l-40 0 0 70 c0 40 4 70 10 70 6
0 10 -27 10 -60z m312 50 c-40 -9 -46 -15 -39 -35 4 -8 18 -15 32 -15 15 0 24
-4 20 -10 -4 -6 -12 -10 -18 -9 -30 4 -37 -3 -38 -33 -1 -55 -17 -2 -18 60
l-1 52 48 -1 c45 -1 45 -1 14 -9z m331 4 c12 -13 -4 -24 -22 -15 -27 15 -65
-9 -69 -42 -5 -44 15 -60 63 -52 37 6 39 5 23 -11 -21 -21 -83 -11 -98 16 -28
53 2 110 59 110 21 0 41 -3 44 -6z m277 -7 c-22 -11 -25 -20 -28 -70 -4 -72
-22 -66 -22 8 0 49 -2 54 -27 63 -24 9 -19 11 37 11 59 1 63 -1 40 -12z m226
-33 c-3 -26 -6 -58 -6 -71 0 -14 -4 -21 -10 -18 -5 3 -10 35 -10 71 0 53 3 64
16 64 14 0 16 -8 10 -46z m315 30 c19 -23 15 -85 -7 -101 -27 -20 -36 -15 -14
7 11 11 20 29 20 40 0 21 -33 60 -50 60 -14 0 -50 -38 -50 -52 0 -7 7 -25 14
-40 18 -33 4 -37 -18 -6 -20 29 -20 52 0 83 13 19 25 25 54 25 22 0 43 -7 51
-16z m270 -31 l34 -48 3 48 c2 26 7 47 13 47 11 0 12 -107 0 -114 -5 -3 -24
10 -42 28 -36 38 -49 38 -49 0 0 -13 -4 -24 -10 -24 -5 0 -10 25 -10 55 0 69
14 71 61 8z m347 29 c3 -11 0 -12 -17 -3 -25 14 -41 7 -41 -19 0 -12 10 -21
29 -25 32 -7 48 -32 31 -49 -7 -7 -10 -5 -10 7 0 10 -15 23 -35 31 -26 11 -35
21 -35 39 0 13 3 27 7 31 12 12 66 2 71 -12z m-68 -103 c0 -6 -4 -7 -10 -4 -5
3 -10 11 -10 16 0 6 5 7 10 4 6 -3 10 -11 10 -16z m-1677 -16 c-7 -2 -21 -2
-30 0 -10 3 -4 5 12 5 17 0 24 -2 18 -5z m-1051 -128 c10 -4 12 -32 9 -125 -2
-97 0 -121 11 -125 9 -4 92 47 199 120 101 69 193 128 204 131 11 3 65 4 120
2 l100 -3 0 -165 0 -165 -40 -20 c-23 -11 -82 -49 -133 -85 -246 -173 -363
-255 -422 -299 -207 -151 -413 -291 -419 -286 -11 11 -7 1009 4 1017 11 9 346
11 367 3z m2986 -4 c11 -6 12 -75 9 -346 -3 -313 -5 -340 -21 -349 -54 -32
-102 -68 -173 -127 -206 -175 -211 -179 -217 -163 -3 9 -6 233 -6 499 0 377 3
484 13 488 21 9 381 7 395 -2z"/>
<path d="M4348 4135 c-21 -46 19 -94 58 -67 18 12 24 41 14 67 -13 34 -56 34
-72 0z"/>
</g>
</svg>
